<svg xmlns="http://www.w3.org/2000/svg" height="48px" viewBox="0 -960 960 960" width="48px">
  <defs>
    <linearGradient id="refreshGradient" gradientUnits="userSpaceOnUse" x1="0" y1="0" x2="960" y2="0">
        <stop offset="0%" stop-color="#182853"/>
        <stop offset="50%" stop-color="#2A3F79"/>
        <stop offset="100%" stop-color="#366092"/>
    </linearGradient>
  </defs>
  <path fill="url(#refreshGradient)" stroke="url(#refreshGradient)" stroke-width="20" d="M195-302q-28-41-40-85.5T143-480q0-135 98-235t232-100h43l-68-69 47-47 162 163-162 162-48-47 67-68h-39q-97 0-167.5 71.5T237-480q0 32 6.5 60t17.5 52l-66 66ZM463-26 301-188l162-164 48 48-69 68h43q97 0 167.5-71.5T723-478q0-31-6.5-59T698-589l67-66q27 42 39.5 86t12.5 91q0 136-98 236.5T488-141h-46l69 68-48 47Z"/>
</svg>